# xmcd
#
# Track frame offsets:
#	150
#	12720
#	23835
#	36945
#	48705
#	61500
#	74280
#	86475
#	97170
#	108000
#	119715
#	129180
#	139710
#	150315
#	162360
#	176175
#	185445
#	197235
#	211095
#	224040
#	233700
#	245295
#	257160
#	268665
#	280125
#
# Disc length: 3895 seconds
#
# Revision: 1
# Processed by: cddbd v1.5.2PL0 Copyright (c) Steve Scherf et al.
# Submitted via: audiograbber 1.83.01
#
DISCID=6e0f3519
DTITLE=Various Artist - Original Country Disc 1
DYEAR=2019
DGENRE=Country
TTITLE0=Johnny Cash - I Walk The Line
TTITLE1=Hank Snow - Let Me Go Lover
TTITLE2=Marty Robbins - Devil Woman
TTITLE3=George Jones - She Thinks I Still Care
TTITLE4=Porter Wagoner - A Satified Mind
TTITLE5=Johnny Horton - North To Alaska
TTITLE6=Flatt and Scruggs - Foggy Mountain Breakdown
TTITLE7=Jim Reeves - He'll Have To Go
TTITLE8=Hank Locklin - Please Help Me I'm Fallin'
TTITLE9=Patsy Cline - Walkin' After Midnight
TTITLE10=Glenn Campbell - Truck Drivin' Man
TTITLE11=Ferlin Husky - Wings Of A Dove
TTITLE12=Slim Whitman - Rose Marie
TTITLE13=Hank WIlliams Sr. - Take These Chains From My Heart
TTITLE14=Jimmy Dean - Big Band John
TTITLE15=Frankie Laine - Rawhide
TTITLE16=Faron Young - Country Girl
TTITLE17=Willie Nelson - Funny How Time Slips Away
TTITLE18=The Browns - The Three Bells
TTITLE19=Wanda Jackson - Let's Have A Party
TTITLE20=Ray Price - Crazy Arms
TTITLE21='Tennessee' Ernie Ford - Sixteen Tons
TTITLE22=Kitty Wells - It Wasn't God Who Made Honky Tonk Angels
TTITLE23=Don Gibson - Oh, Lonesome Me
TTITLE24=Brenda Lee - I'm Sorry
EXTD=
EXTT0=
EXTT1=
EXTT2=
EXTT3=
EXTT4=
EXTT5=
EXTT6=
EXTT7=
EXTT8=
EXTT9=
EXTT10=
EXTT11=
EXTT12=
EXTT13=
EXTT14=
EXTT15=
EXTT16=
EXTT17=
EXTT18=
EXTT19=
EXTT20=
EXTT21=
EXTT22=
EXTT23=
EXTT24=
PLAYORDER=
